Daddy Im A Zombie 2011 DVDRIP Xvid AC3-BHRG

File size                                : 1.16 GiB
Duration                                 : 1h 18mn
Overall bit rate                         : 2 107 Kbps

Video
ID                                       : 0
Format                                   : MPEG-4 Visual
Format profile                           : Advanced Simple@L5
Format settings, BVOP                    : 2
Format settings, QPel                    : No
Format settings, GMC                     : No warppoints
Format settings, Matrix                  : Default (H.263)
Codec ID                                 : XVID
Codec ID/Hint                            : XviD
Duration                                 : 1h 18mn
Bit rate                                 : 1 651 Kbps
Width                                    : 720 pixels
Height                                   : 400 pixels
Display aspect ratio                     : 16:9
Frame rate                               : 25.000 fps
Color space                              : YUV
Chroma subsampling                       : 4:2:0
Bit depth                                : 8 bits
Scan type                                : Progressive
Compression mode                         : Lossy
Bits/(Pixel*Frame)                       : 0.229
Stream size                              : 928 MiB (78%)
Writing library                          : XviD 1.2.1 (UTC 2008-12-04)

Audio
ID                                       : 1
Format                                   : AC-3
Format/Info                              : Audio Coding 3
Mode extension                           : CM (complete main)
Format settings, Endianness              : Big
Codec ID                                 : 2000
Duration                                 : 1h 18mn
Bit rate mode                            : Constant
Bit rate                                 : 448 Kbps
Channel(s)                               : 6 channels
Channel positions                        : Front: L C R, Side: L R, LFE
Sampling rate                            : 48.0 KHz
Bit depth                                : 16 bits
Compression mode                         : Lossy
Stream size                              : 252 MiB (21%)
Alignment                                : Aligned on interleaves
Interleave, duration                     : 64 ms (1.60 video frames)
Interleave, preload duration             : 192 ms
Title                                    : VTS_05_1 T80 3_2ch 448Kbps DELAY 0ms_new



IMDBhttp://www.imdb.com/title/tt2243469/

Source ..........DVD vobs  iwo Selina thanks wee love

sample enclosed
 
http://lookpic.com/O/i2/1037/3G3CoF13.png 
http://lookpic.com/O/i2/1152/9m74XS1.png 
http://lookpic.com/O/i2/455/N1fnN307.png 
http://lookpic.com/O/i2/1321/KddHjhtf.png 
http://lookpic.com/O/i2/1835/0EQy5FiX.png 
http://lookpic.com/O/i2/1766/MgVj7E2W.png